PathFileType	4	(X/Y/Z)	/Users/itak/Documents/Research/Walk-IL/dataset/trc/00223_00009.trc
DataRate	CameraRate	NumFrames	NumMarkers	Units	OrigDataRate	OrigDataStartFrame	OrigNumFrames
100.000000	100.000000	4	53	mm	100.000000	369	492
Frame#	Time	RPSI			LPSI			L3			STRN			T10			C7			CLAV			RBAK			LBAK			LSHO			LUPA			LAEL			LAOL			LWTS			LWPS			LFRA			LIFD			LHPS			LHTS			RSHO			RUPA			RAEL			RAOL			RWTS			RWPS			RFRA			RIFD			RHTS			RHPS			RBHD			LFHD			RFHD			LBHD			LHIP			RHIP			RASI			LASI			LKNE			LTHI			LANK			LTIP			LTOE			LMT1			LMT5			LHEE			RKNE			RANK			RTIP			RTOE			RMT1			RMT5			RHEE			RTHI			
		X1	Y1	Z1	X2	Y2	Z2	X3	Y3	Z3	X4	Y4	Z4	X5	Y5	Z5	X6	Y6	Z6	X7	Y7	Z7	X8	Y8	Z8	X9	Y9	Z9	X10	Y10	Z10	X11	Y11	Z11	X12	Y12	Z12	X13	Y13	Z13	X14	Y14	Z14	X15	Y15	Z15	X16	Y16	Z16	X17	Y17	Z17	X18	Y18	Z18	X19	Y19	Z19	X20	Y20	Z20	X21	Y21	Z21	X22	Y22	Z22	X23	Y23	Z23	X24	Y24	Z24	X25	Y25	Z25	X26	Y26	Z26	X27	Y27	Z27	X28	Y28	Z28	X29	Y29	Z29	X30	Y30	Z30	X31	Y31	Z31	X32	Y32	Z32	X33	Y33	Z33	X34	Y34	Z34	X35	Y35	Z35	X36	Y36	Z36	X37	Y37	Z37	X38	Y38	Z38	X39	Y39	Z39	X40	Y40	Z40	X41	Y41	Z41	X42	Y42	Z42	X43	Y43	Z43	X44	Y44	Z44	X45	Y45	Z45	X46	Y46	Z46	X47	Y47	Z47	X48	Y48	Z48	X49	Y49	Z49	X50	Y50	Z50	X51	Y51	Z51	X52	Y52	Z52	X53	Y53	Z53	

370	3.69	446.31494140625	1027.008422851562	-101.4627151489258	453.4096984863281	1035.4296875	17.99816513061523	450.8252258300781	1118.126708984375	-31.21714973449707	191.6439056396484	1286.21533203125	-8.770424842834473	448.966796875	1244.709228515625	-45.19368362426758	366.6606750488281	1501.496215820312	-41.13039016723633	209.9743957519531	1404.601806640625	-15.14209270477295	445.02587890625	1366.55419921875	-121.9691848754883	402.7752380371094	1466.712768554688	67.99496459960938	322.1481628417969	1463.56298828125	137.5722961425781	371.962890625	1347.15673828125	210.7409820556641	386.3172607421875	1136.247924804688	237.0016479492188	437.4808349609375	1122.284790039062	168.5038757324219	289.7946472167969	898.8673095703125	218.8057708740234	345.9979858398438	883.267822265625	281.7135925292969	376.0052185058594	1028.469848632812	257.8787841796875	292.1939697265625	703.6904296875	228.009521484375	331.1275939941406	794.1041259765625	282.9698791503906	269.4115295410156	797.2261352539062	252.4354248046875	289.8172302246094	1446.552001953125	-197.8433532714844	300.2459716796875	1379.469604492188	-264.5255737304688	300.1341857910156	1097.311767578125	-296.0950012207031	351.6195678710938	1089.43896484375	-215.9348602294922	163.8922729492188	891.7620239257812	-225.2129211425781	202.8560180664062	873.7354736328125	-298.0173034667969	268.8342895507812	1030.361206054688	-301.6993103027344	138.13037109375	699.8351440429688	-213.6965026855469	115.0465927124023	773.773193359375	-230.6282958984375	156.8162384033203	769.3338012695312	-289.5811157226562	301.6544494628906	1656.93994140625	-90.53453063964844	109.5117874145508	1678.04638671875	29.49423408508301	96.60285186767578	1672.547241210938	-70.31098937988281	273.0269165039062	1664.19091796875	47.15996551513672	357.8363342285156	978.7218017578125	163.5070953369141	348.4049377441406	980.7800903320312	-204.7381286621094	253.0021057128906	1022.414245605469	-164.4209289550781	256.8180236816406	1017.886047363281	117.7640380859375	174.1138763427734	521.9765625	132.7896270751953	234.7662200927734	652.3865356445312	165.1091918945312	103.5198211669922	38.41165542602539	119.9530487060547	151.6329498291016	292.880126953125	138.0018463134766	-99.17272186279297	106.4857025146484	76.02714538574219	-36.48007583618164	86.54804992675781	29.78889656066895	-20.50954246520996	65.19619750976562	139.6988830566406	165.5317687988281	35.90211868286133	67.85771942138672	316.0726013183594	488.3642883300781	-136.2426452636719	494.8110046386719	30.92639923095703	-87.54631042480469	330.4691467285156	366.0838012695312	-111.6394882202148	284.8427734375	44.23344802856445	-42.63523483276367	339.6966247558594	39.86886596679688	-0.4704820811748505	383.8155517578125	32.90657806396484	-113.2161254882812	557.000244140625	34.19611358642578	-26.48428344726562	291.8513793945312	753.9741821289062	-192.7371520996094	
371	3.7	450.6427612304688	1028.069091796875	-102.3039627075195	457.7696533203125	1036.743896484375	17.11318588256836	455.1221313476562	1119.177368164062	-32.03125762939453	196.2427673339844	1287.59619140625	-9.541535377502441	453.6248779296875	1245.86181640625	-45.90448379516602	371.4873962402344	1502.700805664062	-41.78696060180664	214.7366638183594	1405.9677734375	-15.91506862640381	449.8009338378906	1367.680908203125	-122.5255889892578	407.5381164550781	1467.89306640625	67.37625122070312	326.8699340820312	1464.811767578125	136.8817443847656	376.520751953125	1348.4150390625	210.1017303466797	390.596923828125	1137.41650390625	236.1027526855469	441.9250793457031	1123.43310546875	167.7496337890625	293.0986022949219	900.4679565429688	217.4269409179688	349.0567626953125	884.5331420898438	280.434814453125	379.693115234375	1029.642944335938	256.8233947753906	294.8196411132812	705.2149658203125	226.2132415771484	333.8904418945312	795.4303588867188	281.4848937988281	272.2605590820312	798.792724609375	250.7509918212891	294.7743530273438	1447.932495117188	-198.6735992431641	305.5439453125	1380.788818359375	-265.3174743652344	307.6528930664062	1098.488891601562	-296.2510681152344	358.1866455078125	1091.119873046875	-215.5775909423828	171.5888824462891	892.321533203125	-226.5938568115234	211.8930816650391	874.2771606445312	-298.7175598144531	276.880126953125	1031.353881835938	-302.0664978027344	147.3053283691406	700.1505737304688	-214.7077331542969	124.0049591064453	773.8287353515625	-232.1411437988281	166.4876098632812	769.549560546875	-290.5601806640625	306.3743591308594	1658.31005859375	-91.12631225585938	114.2634582519531	1679.213134765625	29.02058029174805	101.3096084594727	1673.755737304688	-70.78402709960938	277.8211059570312	1665.451904296875	46.61427307128906	362.3177185058594	980.4223022460938	162.8416748046875	352.6404418945312	981.6382446289062	-205.4076538085938	257.4578247070312	1023.656066894531	-164.88818359375	261.208984375	1019.407775878906	117.0399780273438	178.3544769287109	523.5128173828125	132.5660705566406	238.7554473876953	654.1451416015625	164.7703704833984	113.1523971557617	39.10463714599609	120.8320007324219	158.0434265136719	294.0204467773438	138.2243347167969	-90.03681182861328	104.5723266601562	75.96580505371094	-27.14069557189941	84.97508239746094	30.02359199523926	-11.07983684539795	64.68896484375	140.1773986816406	175.3384094238281	37.03310394287109	68.99765777587891	319.0521850585938	489.3448181152344	-136.4393157958984	494.9992370605469	30.79364585876465	-87.64337158203125	332.7685852050781	367.0454406738281	-111.7632446289062	285.1610717773438	44.66738510131836	-42.54121398925781	340.0668334960938	40.14162063598633	-0.3371500372886658	383.9222717285156	33.01964569091797	-112.9609603881836	557.2272338867188	33.98523330688477	-26.6155891418457	295.9243469238281	755.1473388671875	-193.3027954101562	
372	3.71	454.8253784179688	1029.092529296875	-103.0848693847656	461.9724426269531	1038.01708984375	16.29545402526855	459.2503051757812	1120.22412109375	-32.82366561889648	200.6626739501953	1288.956298828125	-10.33045768737793	458.1248168945312	1246.97705078125	-46.61096572875977	376.1775817871094	1503.879760742188	-42.41339492797852	219.3330383300781	1407.308959960938	-16.68438720703125	454.4136962890625	1368.79443359375	-123.0687484741211	412.1487121582031	1469.02099609375	66.78607940673828	331.44580078125	1466.002563476562	136.2110137939453	380.8998107910156	1349.609375	209.4937286376953	394.6155090332031	1138.523803710938	235.3129272460938	446.1609802246094	1124.5087890625	167.1275177001953	296.2865600585938	901.95458984375	216.1775817871094	351.9492797851562	885.74658203125	279.3036499023438	383.1718444824219	1030.765991210938	255.8918914794922	297.4847106933594	706.6295166015625	224.5490875244141	336.5817565917969	796.6945190429688	280.1707458496094	275.0427551269531	800.2305908203125	249.1714782714844	299.5636901855469	1449.306030273438	-199.4715728759766	310.679931640625	1382.119506835938	-266.0899047851562	315.0639953613281	1099.700073242188	-296.4967346191406	364.72021484375	1092.8232421875	-215.3343811035156	179.2156066894531	892.8677368164062	-228.0326385498047	220.9040985107422	874.8173828125	-299.4833068847656	284.8424987792969	1032.371948242188	-302.5173034667969	156.499755859375	700.4833984375	-215.7001190185547	132.9846343994141	773.8722534179688	-233.6612548828125	176.154541015625	769.769287109375	-291.5498962402344	311.028564453125	1659.65185546875	-91.64957427978516	118.949104309082	1680.414306640625	28.59031867980957	105.962760925293	1675.01611328125	-71.21378326416016	282.5485534667969	1666.685546875	46.11321640014648	366.5654907226562	982.1146850585938	162.2133331298828	356.7608337402344	982.4602661132812	-206.0422973632812	261.52880859375	1024.921142578125	-165.4083862304688	265.4010314941406	1020.95654296875	116.3006973266602	182.3126068115234	525.0708618164062	132.2856597900391	242.3423614501953	655.9663696289062	164.3339233398438	123.1765289306641	39.74077224731445	121.9844360351562	164.4335327148438	295.146240234375	138.5548248291016	-80.30327606201172	102.3623962402344	75.12843322753906	-16.95010757446289	83.101318359375	29.82109260559082	-1.350639700889587	63.94964599609375	140.2698822021484	185.7607879638672	38.11713790893555	70.67790222167969	322.1995544433594	490.3101806640625	-136.5453186035156	495.1964721679688	30.66187477111816	-87.70420074462891	335.1710815429688	368.04248046875	-111.8535385131836	285.4916381835938	45.14142227172852	-42.44658279418945	340.4046325683594	40.41849899291992	-0.2084983736276627	384.0328369140625	33.13682174682617	-112.6932678222656	557.477783203125	33.79400634765625	-26.74791717529297	299.9855346679688	756.3485107421875	-193.8840026855469	
373	3.72	458.880126953125	1030.066772460938	-103.7816162109375	466.0231323242188	1039.221923828125	15.56984233856201	463.2346801757812	1121.257446289062	-33.57427978515625	204.920166015625	1290.274169921875	-11.13967895507812	462.4700927734375	1248.038818359375	-47.29811477661133	380.7334899902344	1505.014526367188	-43.01007461547852	223.7732238769531	1408.603515625	-17.45190238952637	458.8729248046875	1369.878662109375	-123.5962219238281	416.6113586425781	1470.079467773438	66.21884918212891	335.8780822753906	1467.115600585938	135.5586242675781	385.105712890625	1350.71533203125	208.9064788818359	398.3777770996094	1139.547729492188	234.6322326660156	450.1893005371094	1125.487670898438	166.6383361816406	299.3771057128906	903.3067016601562	215.0546417236328	354.6849365234375	886.8831787109375	278.3219909667969	386.46044921875	1031.814819335938	255.0882568359375	300.1434326171875	707.9189453125	223.0322723388672	339.1857299804688	797.8704833984375	279.030029296875	277.7430419921875	801.5330810546875	247.7060241699219	304.1944274902344	1450.648071289062	-200.2380218505859	315.661865234375	1383.437377929688	-266.8448181152344	322.3132629394531	1100.929321289062	-296.8426818847656	371.2012329101562	1094.5234375	-215.2335968017578	186.8481292724609	893.35107421875	-229.4863128662109	229.8265991210938	875.3479614257812	-300.3197326660156	292.6575012207031	1033.40087890625	-303.0542602539062	165.7251129150391	700.794189453125	-216.6934814453125	141.9544677734375	773.8734741210938	-235.1708679199219	185.7678833007812	769.9797973632812	-292.5565185546875	315.6016235351562	1660.94580078125	-92.11506652832031	123.5720672607422	1681.623657226562	28.20323181152344	110.5495376586914	1676.302124023438	-71.60264587402344	287.1941833496094	1667.87158203125	45.65366363525391	370.5756225585938	983.74951171875	161.6269073486328	360.7891540527344	983.2537841796875	-206.6317901611328	265.2711486816406	1026.179809570312	-165.9888153076172	269.4042053222656	1022.497985839844	115.5476684570312	186.0137176513672	526.593994140625	131.9447937011719	245.5707550048828	657.782470703125	163.8125915527344	133.5557861328125	40.29718780517578	123.3752746582031	170.8148651123047	296.2232666015625	138.9801483154297	-70.02269744873047	99.89600372314453	73.64553070068359	-5.989389419555664	80.98592376708984	29.26533508300781	8.659554481506348	62.98774719238281	140.039306640625	196.7263336181641	39.16870880126953	72.83104705810547	325.4513854980469	491.2521362304688	-136.6042022705078	495.3931579589844	30.53118705749512	-87.73954010009766	337.6383972167969	369.0589599609375	-111.935302734375	285.8196716308594	45.64085388183594	-42.35988616943359	340.69873046875	40.69952392578125	-0.09925179183483124	384.1400146484375	33.24466705322266	-112.4398727416992	557.7353515625	33.61332702636719	-26.88277244567871	304.0162658691406	757.545166015625	-194.498291015625	
